# xmcd CD database file
#
# Track frame offsets:
#	150
#	20202
#	36015
#	51267
#	71625
#	85587
#	101652
#	116195
#	130685
#	147062
#
# Disc length: 2113 seconds
#
# Revision: 0
# Processed by: cddbd v1.5.1PL0 Copyright (c) Steve Scherf et al.
# Submitted via: CDex 1.51
#
DISCID=89083f0a
DTITLE=T.C.R. 横浜銀蝿R.S. - 完全復刻盤スーパースペシャル・下
DYEAR=1900
DGENRE=Rock and Roll
TTITLE0=お前サラサラサーファー・ガール　おいらテカテカ　ロックンローラー
TTITLE1=It's Only Rock'n Roll集会のテーマ（のれのれRock'n Roll)
TTITLE2=あせかきベソかきRock'n Roll run
TTITLE3=夜に抱かれてHighway騎士/尻取りRock'n　Roll
TTITLE4=おまえにピタッ！
TTITLE5=土曜の夜だぜ！！
TTITLE6=翔んでるセブンティーン（ツッパリHigh School Rock'n Roll 女子校編
TTITLE7=ゆれてゆられてLonley　Night
TTITLE8=銀ばる　Rock'n Roll
TTITLE9=スイート　リトル　キッス
EXTD=
EXTT0=
EXTT1=
EXTT2=
EXTT3=
EXTT4=
EXTT5=
EXTT6=
EXTT7=
EXTT8=
EXTT9=
PLAYORDER=
